# xmcd
#
# Track frame offsets:
#	150
#	10875
#	22047
#	33772
#	49207
#	63712
#	76947
#	85154
#	94538
#	105534
#	117266
#	127402
#	136338
#	151611
#	164606
#	177419
#	192249
#	207361
#	225401
#	239711
#
# Disc length: 3327 seconds
#
# Revision: 4
# Processed by: cddbd v1.5.2PL0 Copyright (c) Steve Scherf et al.
# Submitted via: audiograbber 1.83.01
#
DISCID=0c0cfd14
DTITLE=J.J. Cale - Collected [CD 1)
DYEAR=2006
DGENRE=Slow Rock
TTITLE0=After Midnight
TTITLE1=Crazy Mama
TTITLE2=Call Me The Breeze
TTITLE3=Magnolia
TTITLE4=Crying Eyes
TTITLE5=Lies
TTITLE6=I'll Kiss The World Goodbye
TTITLE7=If You're Ever In Oklahoma
TTITLE8=Changes
TTITLE9=Crying
TTITLE10=Cajun Moon
TTITLE11=Okie
TTITLE12=Anyway The Wind Blows
TTITLE13=Cocaine
TTITLE14=Travelin' Light
TTITLE15=Hey Baby
TTITLE16=Cherry
TTITLE17=You Got Something
TTITLE18=I'll Make Love To You Anytime
TTITLE19=Don't Cry Sister
EXTD=
EXTT0=
EXTT1=
EXTT2=
EXTT3=
EXTT4=
EXTT5=
EXTT6=
EXTT7=
EXTT8=
EXTT9=
EXTT10=
EXTT11=
EXTT12=
EXTT13=
EXTT14=
EXTT15=
EXTT16=
EXTT17=
EXTT18=
EXTT19=
PLAYORDER=
